<?xml version="1.0" encoding="UTF-8" standalone="no"?>
<!DOCTYPE svg PUBLIC "-//W3C//DTD SVG 1.1//EN"
 "http://www.w3.org/Graphics/SVG/1.1/DTD/svg11.dtd">
<!-- Generated by graphviz version 2.43.0 (0)
 -->
<!-- Title: G Pages: 1 -->
<svg width="242pt" height="158pt"
 viewBox="0.00 0.00 241.58 158.00" xmlns="http://www.w3.org/2000/svg" xmlns:xlink="http://www.w3.org/1999/xlink">
<g id="graph0" class="graph" transform="scale(1 1) rotate(0) translate(4 154)">
<title>G</title>
<polygon fill="white" stroke="transparent" points="-4,4 -4,-154 237.58,-154 237.58,4 -4,4"/>
<!-- IN -->
<g id="node1" class="node">
<title>IN</title>
<ellipse fill="none" stroke="black" cx="84.58" cy="-132" rx="27" ry="18"/>
<text text-anchor="middle" x="84.58" y="-128.3" font-family="Times,serif" font-size="14.00">IN</text>
</g>
<!-- IN&#45;&gt;IN -->
<g id="edge1" class="edge">
<title>IN&#45;&gt;IN</title>
<path fill="none" stroke="black" d="M107.27,-142.13C119,-143.69 129.58,-140.31 129.58,-132 129.58,-126.29 124.58,-122.9 117.64,-121.85"/>
<polygon fill="black" stroke="black" points="117.27,-118.35 107.27,-121.87 117.28,-125.35 117.27,-118.35"/>
<text text-anchor="start" x="129.58" y="-135.8" font-family="Times,serif" font-size="14.00"> &#160;&#160;no espaciador</text>
<text text-anchor="start" x="140.58" y="-121.8" font-family="Times,serif" font-weight="bold" font-size="14.00">++longitud</text>
</g>
<!-- OUT -->
<g id="node2" class="node">
<title>OUT</title>
<ellipse fill="none" stroke="black" cx="84.58" cy="-18" rx="28.7" ry="18"/>
<text text-anchor="middle" x="84.58" y="-14.3" font-family="Times,serif" font-size="14.00">OUT</text>
</g>
<!-- IN&#45;&gt;OUT -->
<g id="edge2" class="edge">
<title>IN&#45;&gt;OUT</title>
<path fill="none" stroke="black" d="M58.71,-126.7C41.01,-122.26 18.79,-113.41 7.58,-96 -2.53,-80.31 -2.53,-69.69 7.58,-54 16.51,-40.13 32.44,-31.69 47.5,-26.59"/>
<polygon fill="black" stroke="black" points="48.61,-29.91 57.19,-23.69 46.61,-23.2 48.61,-29.91"/>
<text text-anchor="start" x="39.08" y="-85.8" font-family="Times,serif" font-size="14.00"> &#160;&#160;espaciador</text>
<text text-anchor="start" x="7.58" y="-71.8" font-family="Times,serif" font-weight="bold" font-size="14.00">longitudes[longitud]++</text>
<text text-anchor="start" x="40.08" y="-57.8" font-family="Times,serif" font-weight="bold" font-size="14.00">longitud=&#45;1</text>
</g>
<!-- OUT&#45;&gt;IN -->
<g id="edge3" class="edge">
<title>OUT&#45;&gt;IN</title>
<path fill="none" stroke="black" d="M108.97,-27.67C120.76,-33.24 133.8,-41.77 140.58,-54 149.63,-70.33 149.63,-79.67 140.58,-96 135.37,-105.4 126.46,-112.61 117.27,-117.97"/>
<polygon fill="black" stroke="black" points="115.37,-115.02 108.11,-122.73 118.59,-121.23 115.37,-115.02"/>
<text text-anchor="start" x="146.58" y="-78.8" font-family="Times,serif" font-size="14.00"> &#160;&#160;no espaciador</text>
<text text-anchor="start" x="157.58" y="-64.8" font-family="Times,serif" font-weight="bold" font-size="14.00">++longitud</text>
</g>
<!-- OUT&#45;&gt;OUT -->
<g id="edge4" class="edge">
<title>OUT&#45;&gt;OUT</title>
<path fill="none" stroke="black" d="M108.55,-28.19C120.51,-29.6 131.18,-26.2 131.18,-18 131.18,-12.23 125.9,-8.84 118.62,-7.83"/>
<polygon fill="black" stroke="black" points="118.56,-4.33 108.55,-7.81 118.55,-11.33 118.56,-4.33"/>
<text text-anchor="middle" x="164.18" y="-14.3" font-family="Times,serif" font-size="14.00"> espaciador </text>
</g>
</g>
</svg>
